<svg viewBox="0 0 24 24" fill="currentColor" xmlns="http://www.w3.org/2000/svg"><path d="M17.472 14.382c-.27-.13-1.6-.79-1.85-.88-.25-.09-.43-.13-.61.13-.18.26-.7.87-.86 1.05-.16.18-.32.2-.59.07-.27-.13-1.13-.42-2.15-1.34-.79-.7-1.32-1.56-1.48-1.83-.16-.27-.02-.41.12-.54.12-.12.27-.32.4-.48.13-.16.18-.27.27-.45.09-.18.05-.34-.02-.47-.07-.13-.61-1.47-.84-2.01-.22-.53-.45-.46-.61-.47-.16-.01-.34-.01-.52-.01-.18 0-.47.07-.72.34-.25.27-.97.95-.97 2.3 0 1.35.99 2.66 1.13 2.85.14.19 1.95 2.98 4.74 4.06.66.28 1.18.45 1.58.58.66.21 1.26.18 1.73.11.53-.08 1.6-.65 1.83-1.28.23-.63.23-1.17.16-1.28-.07-.11-.25-.18-.52-.31z"/></svg> 