<svg width="28" height="28" viewBox="0 0 28 28" fill="none" xmlns="http://www.w3.org/2000/svg">
  <circle cx="14" cy="14" r="13" stroke="#25D366" stroke-width="2" fill="#fff"/>
  <g>
    <path d="M14 7.5c-3.59 0-6.5 2.67-6.5 5.97 0 1.13.36 2.19.98 3.09L7 21l3.67-1.19c.89.29 1.84.45 2.83.45 3.59 0 6.5-2.67 6.5-5.97S17.59 7.5 14 7.5z" fill="#25D366"/>
    <path d="M14 8.7c3.02 0 5.47 2.13 5.47 4.77 0 2.64-2.45 4.77-5.47 4.77-.82 0-1.61-.13-2.33-.37l-.17-.06-.18.06-2.18.71.59-2.01.06-.18-.11-.16c-.57-.77-.89-1.66-.89-2.56 0-2.64 2.45-4.77 5.47-4.77zm-2.13 8.13c.66.22 1.36.34 2.13.34 2.6 0 4.72-1.8 4.72-4.02 0-2.22-2.12-4.02-4.72-4.02s-4.72 1.8-4.72 4.02c0 .74.25 1.45.72 2.07l-.38 1.29 1.41-.46c.28.09.57.17.84.24z" fill="#fff"/>
    <path d="M16.6 14.1c-.22-.11-1.29-.64-1.49-.71-.2-.07-.34-.11-.48.11-.14.22-.56.71-.68.85-.12.14-.25.16-.46.06-.22-.11-.92-.34-1.75-1.09-.64-.57-1.07-1.27-1.2-1.49-.13-.22-.02-.33.1-.44.1-.1.22-.27.33-.41.11-.14.15-.23.23-.39.08-.16.04-.29-.02-.4-.07-.11-.52-1.25-.71-1.7-.19-.45-.38-.39-.52-.4-.14-.01-.29-.01-.44-.01-.15 0-.4.06-.61.29-.21.23-.82.81-.82 1.97 0 1.16.84 2.29.96 2.46.12.17 1.66 2.57 4.04 3.5.56.21 1 .39 1.34.5.56.18 1.07.16 1.47.1.45-.07 1.36-.56 1.56-1.1.2-.54.2-1 .14-1.1-.06-.1-.21-.16-.45-.27z" fill="#25D366"/>
  </g>
</svg> 